<?xml version="1.0" encoding="UTF-8"?>
<!DOCTYPE svg PUBLIC "-//W3C//DTD SVG 1.1//EN" "http://www.w3.org/Graphics/SVG/1.1/DTD/svg11.dtd">
<svg xmlns="http://www.w3.org/2000/svg" version="1.1" width="512px" height="512px" style="shape-rendering:geometricPrecision; text-rendering:geometricPrecision; image-rendering:optimizeQuality; fill-rule:evenodd; clip-rule:evenodd" xmlns:xlink="http://www.w3.org/1999/xlink">
<g><path style="opacity:0.955" fill="#000000" d="M 233.5,-0.5 C 248.167,-0.5 262.833,-0.5 277.5,-0.5C 369.213,10.5899 437.713,56.2566 483,136.5C 498.58,167.171 508.08,199.505 511.5,233.5C 511.5,248.167 511.5,262.833 511.5,277.5C 498.959,377.766 446.959,449.266 355.5,492C 330.316,502.296 304.316,508.796 277.5,511.5C 262.833,511.5 248.167,511.5 233.5,511.5C 141.787,500.41 73.287,454.743 28,374.5C 12.4204,343.829 2.92039,311.495 -0.5,277.5C -0.5,262.833 -0.5,248.167 -0.5,233.5C 12.0408,133.234 64.0408,61.734 155.5,19C 180.684,8.70393 206.684,2.20393 233.5,-0.5 Z M 239.5,24.5 C 323.973,21.994 391.807,53.994 443,120.5C 488.625,187.55 498.292,259.55 472,336.5C 441.488,410.517 387.655,458.35 310.5,480C 222.06,498.293 146.56,475.127 84,410.5C 25.0945,340.427 10.0945,261.761 39,174.5C 69.5117,100.483 123.345,52.6499 200.5,31C 213.535,28.1608 226.535,25.9942 239.5,24.5 Z"/></g>
<g><path style="opacity:0.971" fill="#000000" d="M 143.5,154.5 C 158.39,153.185 168.224,159.518 173,173.5C 173.667,228.167 173.667,282.833 173,337.5C 166.458,354.186 154.624,359.686 137.5,354C 129.101,349.385 124.601,342.218 124,332.5C 123.333,281.167 123.333,229.833 124,178.5C 125.572,166.291 132.072,158.291 143.5,154.5 Z"/></g>
<g><path style="opacity:0.971" fill="#000000" d="M 356.5,154.5 C 373.941,153.455 384.107,161.455 387,178.5C 387.667,229.833 387.667,281.167 387,332.5C 385.507,347.66 377.174,355.66 362,356.5C 349.568,355.731 341.568,349.398 338,337.5C 337.333,282.833 337.333,228.167 338,173.5C 340.991,164.01 347.158,157.676 356.5,154.5 Z"/></g>
<g><path style="opacity:0.972" fill="#000000" d="M 111.5,192.5 C 112.665,234.331 112.831,276.331 112,318.5C 97.2121,314.626 89.8788,304.959 90,289.5C 82.278,292.6 76.6113,290.267 73,282.5C 72.3333,264.5 72.3333,246.5 73,228.5C 76.6113,220.733 82.278,218.4 90,221.5C 89.9405,206.224 97.1072,196.557 111.5,192.5 Z"/></g>
<g><path style="opacity:0.972" fill="#000000" d="M 398.5,192.5 C 413.645,196.082 421.145,205.749 421,221.5C 428.722,218.4 434.389,220.733 438,228.5C 438.667,246.5 438.667,264.5 438,282.5C 434.389,290.267 428.722,292.6 421,289.5C 421.121,304.959 413.788,314.626 399,318.5C 398.5,276.501 398.333,234.501 398.5,192.5 Z"/></g>
<g><path style="opacity:0.962" fill="#000000" d="M 184.5,230.5 C 231.833,230.5 279.167,230.5 326.5,230.5C 326.5,247.167 326.5,263.833 326.5,280.5C 279.167,280.5 231.833,280.5 184.5,280.5C 184.5,263.833 184.5,247.167 184.5,230.5 Z"/></g>
</svg>
